<?xml version="1.0" standalone="no"?>
<!DOCTYPE svg PUBLIC "-//W3C//DTD SVG 1.1//EN" "http://www.w3.org/Graphics/SVG/1.1/DTD/svg11.dtd" >
<svg xmlns="http://www.w3.org/2000/svg">
<metadata>
This is a custom SVG webfont generated by Font Squirrel.
Copyright   : Copyright c 2005 by BV Fonts All rights reserved
Designer    : Jess Latham
Foundry     : BV Fonts
</metadata>
<defs>
<font id="webfontHFqc2uSj" horiz-adv-x="1335" >
<font-face units-per-em="2048" ascent="1536" descent="-512" />
<missing-glyph horiz-adv-x="665" />
<glyph unicode=" "  horiz-adv-x="665" />
<glyph unicode="&#x09;" horiz-adv-x="665" />
<glyph unicode="&#xa0;" horiz-adv-x="665" />
<glyph unicode="!" horiz-adv-x="516" d="M51 160q0 86 60.5 146.5t146.5 60.5t146.5 -60.5t60.5 -146.5q0 -84 -60.5 -145.5t-146.5 -61.5t-146.5 61.5t-60.5 145.5zM74 1294h391l-33 -839h-326z" />
<glyph unicode="&#x22;" horiz-adv-x="1081" d="M51 1264h389l-32 -615h-324zM641 1266h389l-33 -613h-323z" />
<glyph unicode="#" horiz-adv-x="1482" d="M51 236l94 260h142l110 303h-159l94 260h162l73 205h260l-75 -205h260l73 205h261l-74 -205h160l-95 -260h-159l-111 -303h160l-94 -260h-160l-74 -203h-260l74 203h-260l-74 -203h-260l74 203h-142zM547 496h260l111 303h-261z" />
<glyph unicode="$" horiz-adv-x="897" d="M51 815q0 117 71 197t185 80h62v192h227v-192h178v-230h-467q-29 0 -28 -26q0 -49 28 -50h283q106 0 181 -74.5t75 -181.5q0 -115 -68.5 -193.5t-181.5 -80.5v-244h-227v244h-244v227h465q12 0 20 9.5t8 19.5q0 47 -28 47h-283q-106 0 -181 76t-75 180z" />
<glyph unicode="%" horiz-adv-x="1916" d="M51 887q0 170 121 290.5t291 120.5h569q106 0 180 -60t74 -165q0 -74 -39 -141l-379 -678q-10 -20 -10 -27q16 -4 27 -4h157v185q0 170 121 290.5t291 120.5t291 -120.5t121 -290.5t-122 -291t-290 -121h-569q-106 0 -181 61.5t-75 163.5q0 72 41 144l379 677q8 16 10 25 q-8 4 -27 4h-158v-184q0 -170 -120.5 -291t-290.5 -121t-291 121t-121 291zM279 887q0 -76 54 -130.5t130 -54.5t130 54.5t54 130.5v184h-184q-78 0 -131 -54t-53 -130zM1270 223h184q76 0 130 54.5t54 130t-54 130t-130 54.5q-78 0 -131 -54.5t-53 -129.5v-185z" />
<glyph unicode="&#x26;" horiz-adv-x="1435" d="M51 389q0 141 62.5 244.5t189.5 150.5l-67 54q-2 0 -7.5 7t-5.5 9q-72 92 -71 193q0 117 85 183t203 66h682v-325h-528l149 -115q98 -80 99 -178q0 -90 -66.5 -141.5t-159.5 -51.5h-176q-27 0 -45 -19.5t-18 -45.5q0 -94 63 -94h455q27 0 46.5 18t19.5 45v129 q0 121 86 207t204 86h133v-326h-100v-96q0 -160 -113.5 -274.5t-275.5 -114.5h-455q-160 0 -274.5 114.5t-114.5 274.5z" />
<glyph unicode="'" horiz-adv-x="491" d="M51 1264h389l-32 -615h-324z" />
<glyph unicode="(" horiz-adv-x="774" d="M51 647.5q0 282.5 195.5 485t476.5 204.5v-325q-147 0 -246.5 -107.5t-99.5 -257.5q0 -147 99 -254.5t247 -107.5v-326q-281 0 -476.5 203t-195.5 485.5z" />
<glyph unicode=")" horiz-adv-x="774" d="M51 -41v326q147 0 246.5 107.5t99.5 254.5q0 150 -99 257.5t-247 107.5v325q281 -2 476.5 -204.5t195.5 -485t-195.5 -485.5t-476.5 -203z" />
<glyph unicode="*" horiz-adv-x="1435" d="M51 778q0 76 51.5 130.5t126.5 54.5q37 0 74 -17l268 -121l-32 293v19q0 76 51 127t127 51t128 -51.5t52 -126.5q0 -12 -2 -19l-31 -293l269 121q37 16 73 17q74 0 126 -54.5t52 -128.5q0 -63 -39.5 -111t-103.5 -63l-287 -59l197 -217q47 -51 47 -121q0 -74 -54 -127 t-128 -53q-100 0 -152 92l-147 254l-146 -256q-51 -90 -153 -90q-74 0 -128 53t-54 127q0 68 47 121l198 217l-288 59q-61 14 -101.5 61.5t-40.5 110.5z" />
<glyph unicode="+" horiz-adv-x="1142" d="M51 485v326h357v356h325v-356h359v-326h-359v-356h-325v356h-357z" />
<glyph unicode="," horiz-adv-x="514" d="M51 176q0 86 60.5 146.5t146.5 60.5q98 0 151.5 -72.5t53.5 -175.5q0 -147 -77 -263t-214 -185l-33 45q137 125 137 194q0 33 -47 45q-80 20 -129 72.5t-49 132.5z" />
<glyph unicode="-" horiz-adv-x="839" d="M51 485v326h737v-326h-737z" />
<glyph unicode="." horiz-adv-x="516" d="M51 178q0 84 60.5 145.5t146.5 61.5t146.5 -61.5t60.5 -145.5q0 -86 -60.5 -146.5t-146.5 -60.5t-146.5 60.5t-60.5 146.5z" />
<glyph unicode="/" horiz-adv-x="903" d="M51 2l453 1292h348l-457 -1292h-344z" />
<glyph unicode="0" horiz-adv-x="1435" d="M51 641q0 281 194.5 482.5t473 201.5t472 -201.5t193.5 -482.5q0 -279 -193.5 -481.5t-472 -202.5t-473 202.5t-194.5 481.5zM373 641q0 -145 100 -252.5t245.5 -107.5t245 107.5t99.5 252.5q0 147 -99.5 255t-245 108t-245.5 -108t-100 -255z" />
<glyph unicode="1" horiz-adv-x="1089" d="M51 975v321h203q141 0 266 -97t174 -234l344 -965h-340l-307 856q-20 59 -50 89t-85 30h-205z" />
<glyph unicode="2" d="M51 0v518q0 139 121 216t268 77h455q27 0 46.5 18.5t19.5 44.5q0 96 -66 97h-762v325h762q162 0 275.5 -114.5t113.5 -276.5v-31q0 -160 -113.5 -274.5t-275.5 -114.5h-455q-39 0 -63 -10v-149h827v-326h-1153z" />
<glyph unicode="3" horiz-adv-x="1255" d="M51 971v325h762q162 0 276.5 -114.5t114.5 -276.5q0 -156 -74 -258q74 -102 74 -227v-31q0 -160 -114.5 -274.5t-276.5 -114.5h-729v326h729q27 0 46.5 18t19.5 45q0 96 -66 96h-324v326h324q27 0 46.5 18.5t19.5 44.5q0 96 -66 97h-762z" />
<glyph unicode="4" horiz-adv-x="1411" d="M51 500q0 96 70 190l459 606h477v-725h303v-323h-303v-248h-324v248h-387q-121 0 -208 66.5t-87 185.5zM440 571h293v390z" />
<glyph unicode="5" d="M51 778v518h1071v-325h-745v-162h518q162 0 275.5 -113.5t113.5 -275.5v-31q0 -160 -113.5 -274.5t-275.5 -114.5h-762v326h762q27 0 46.5 18t19.5 45q0 96 -66 96h-455q-147 0 -268 77t-121 216z" />
<glyph unicode="6" d="M51 389v516q0 162 115 276.5t274 114.5h682v-325h-682q-27 0 -45 -19.5t-18 -46.5v-94h518q162 0 275.5 -114.5t113.5 -276.5v-31q0 -160 -113.5 -274.5t-275.5 -114.5h-455q-160 0 -274.5 114.5t-114.5 274.5zM377 389q0 -27 18.5 -45t44.5 -18h455q27 0 46.5 18 t19.5 45v31q0 27 -19.5 46t-46.5 19h-518v-96z" />
<glyph unicode="7" horiz-adv-x="1097" d="M51 971v325h682q131 0 222.5 -79.5t91.5 -208.5q0 -70 -35 -150l-400 -858h-358l451 971h-654z" />
<glyph unicode="8" d="M51 389q0 156 74 258q-74 102 -74 227v31q0 162 115 276.5t274 114.5h455q162 0 275.5 -114.5t113.5 -276.5q0 -156 -74 -258q74 -102 74 -227v-31q0 -160 -113.5 -274.5t-275.5 -114.5h-455q-160 0 -274.5 114.5t-114.5 274.5zM377 389q0 -27 18.5 -45t44.5 -18h455 q27 0 46.5 18t19.5 45v31q0 27 -19.5 46t-46.5 19h-455q-27 0 -45 -19.5t-18 -45.5v-31zM377 874q0 -27 18.5 -45t44.5 -18h455q27 0 46.5 18.5t19.5 44.5v31q0 27 -19.5 46.5t-46.5 19.5h-455q-27 0 -45 -19.5t-18 -46.5v-31z" />
<glyph unicode="9" d="M51 874v31q0 162 115 276.5t274 114.5h455q162 0 275.5 -114.5t113.5 -276.5v-516q0 -160 -113.5 -274.5t-275.5 -114.5h-682v326h682q27 0 46.5 18t19.5 45v96h-521q-160 0 -274.5 114.5t-114.5 274.5zM377 874q0 -27 18.5 -45t44.5 -18h521v94q0 27 -19.5 46.5 t-46.5 19.5h-455q-27 0 -45 -19.5t-18 -46.5v-31z" />
<glyph unicode=":" horiz-adv-x="516" d="M51 178q0 84 60.5 145.5t146.5 61.5t146.5 -61.5t60.5 -145.5q0 -86 -60.5 -146.5t-146.5 -60.5t-146.5 60.5t-60.5 146.5zM51 860q0 86 60.5 146.5t146.5 60.5t146.5 -60.5t60.5 -146.5t-60.5 -146.5t-146.5 -60.5t-146.5 60.5t-60.5 146.5z" />
<glyph unicode=";" horiz-adv-x="532" d="M51 860q0 86 60.5 146.5t146.5 60.5t146.5 -60.5t60.5 -146.5t-60.5 -146.5t-146.5 -60.5t-146.5 60.5t-60.5 146.5zM68 176q0 86 61 146.5t145 60.5q98 0 152.5 -72.5t54.5 -175.5q0 -147 -77.5 -263t-215.5 -185l-30 45q135 123 135 194q0 33 -47 45q-80 20 -129 72.5 t-49 132.5z" />
<glyph unicode="&#x3c;" horiz-adv-x="1093" d="M51 647q0 158 189 236l802 317v-348q-135 -53 -434 -137q-164 -49 -200 -64q47 -18 229 -67q305 -88 405 -125v-348l-798 305q-82 31 -137.5 91t-55.5 140z" />
<glyph unicode="=" horiz-adv-x="1011" d="M51 266v326h910v-326h-910zM51 721v326h910v-326h-910z" />
<glyph unicode="&#x3e;" horiz-adv-x="1093" d="M51 111v348q100 37 404 125q174 45 231 67q-29 10 -203 64q-291 82 -432 137v348l801 -317q190 -76 190 -236q0 -80 -55 -140.5t-137 -90.5z" />
<glyph unicode="?" horiz-adv-x="878" d="M51 987v324h465q131 0 221 -78t90 -207q0 -74 -36 -152l-191 -393h-360l245 506h-434zM213 207q0 86 60.5 146.5t146.5 60.5t146.5 -60.5t60.5 -146.5t-60.5 -146.5t-146.5 -60.5t-146.5 60.5t-60.5 146.5z" />
<glyph unicode="@" horiz-adv-x="1374" d="M51 6v674q0 264 186.5 453.5t448.5 189.5q264 0 450.5 -189.5t186.5 -453.5q0 -190 -102.5 -349t-276.5 -239l-227 -102v268q-121 10 -203 103.5t-82 216.5q0 131 91 226t222 95h166q-92 98 -225 98q-129 0 -219 -93t-90 -224v-674h-326zM662 584q0 -39 27.5 -65.5 t64.5 -26.5q39 0 65.5 26.5t26.5 65.5q0 37 -26.5 64.5t-65.5 27.5q-37 0 -64.5 -27.5t-27.5 -64.5z" />
<glyph unicode="A" d="M51 0v680q0 268 180.5 457.5t436.5 189.5t436 -189.5t180 -457.5v-680h-323v293h-584v-293h-326zM377 616h584v64q0 133 -86.5 228.5t-207 95.5t-205.5 -95.5t-85 -228.5v-64z" />
<glyph unicode="B" d="M51 0v1296h844q162 0 275.5 -114.5t113.5 -276.5q0 -156 -74 -258q74 -102 74 -227v-31q0 -160 -113.5 -274.5t-275.5 -114.5h-844zM377 326h518q27 0 46.5 18t19.5 45q0 96 -66 96h-324v326h324q27 0 46.5 18.5t19.5 44.5q0 96 -66 97h-518v-645z" />
<glyph unicode="C" horiz-adv-x="1173" d="M51 647q0 268 180.5 458.5t436.5 190.5h454v-325h-454q-121 0 -206 -95.5t-85 -228.5t85 -227t206 -94h454v-326h-454q-254 0 -435.5 189.5t-181.5 457.5z" />
<glyph unicode="D" d="M51 0v1296h617q256 0 436 -190.5t180 -458.5t-181 -457.5t-435 -189.5h-617zM377 326h291q121 0 207 94t86 227t-86.5 228.5t-206.5 95.5h-291v-645z" />
<glyph unicode="E" horiz-adv-x="1255" d="M51 647q0 262 178.5 455.5t438.5 193.5h536v-325h-536q-80 0 -146.5 -44t-105.5 -116h545v-326h-545q37 -72 104.5 -115.5t147.5 -43.5h536v-326h-536q-260 0 -438.5 192.5t-178.5 454.5z" />
<glyph unicode="F" horiz-adv-x="1173" d="M51 0v647q0 262 178.5 455.5t438.5 193.5h454v-325h-454q-125 0 -208 -98.5t-83 -225.5v-8h604v-326h-604v-313h-326z" />
<glyph unicode="G" d="M51 647q0 262 178.5 455.5t438.5 193.5h616v-325h-616q-125 0 -208 -98.5t-83 -225.5t83 -224t208 -97h293v159h-304v326h627v-811h-616q-260 0 -438.5 192.5t-178.5 454.5z" />
<glyph unicode="H" horiz-adv-x="1257" d="M51 0v1296h326v-485h504v485h325v-1296h-325v485h-504v-485h-326z" />
<glyph unicode="I" horiz-adv-x="526" d="M100 0v1296h326v-1296h-326z" />
<glyph unicode="J" horiz-adv-x="1058" d="M51 0v326h428q84 0 144.5 60t60.5 144v768h324v-768q0 -219 -155 -374.5t-374 -155.5h-428z" />
<glyph unicode="K" horiz-adv-x="1271" d="M31 -2v1294h325v-1294h-325zM438 768l398 524h405l-430 -608l84 -240q23 -61 52.5 -91.5t86.5 -30.5h207v-324h-207q-143 0 -269 98.5t-175 237.5z" />
<glyph unicode="L" horiz-adv-x="1107" d="M51 389v907h326v-907q0 -27 18.5 -45t44.5 -18h617v-326h-617q-162 0 -275.5 113.5t-113.5 275.5z" />
<glyph unicode="M" horiz-adv-x="1894" d="M51 0v801q0 219 154.5 374.5t374.5 155.5q213 0 366 -149q156 150 367 149q219 0 374.5 -155.5t155.5 -374.5v-801h-325v801q0 84 -60.5 144.5t-144.5 60.5t-143.5 -60.5t-59.5 -144.5v-801h-326v801q0 84 -60 144.5t-144 60.5t-143.5 -60.5t-59.5 -144.5v-801h-326z" />
<glyph unicode="N" horiz-adv-x="1327" d="M51 0v684q0 262 177.5 453.5t435.5 191.5t435 -191.5t177 -453.5v-684h-322v684q0 127 -83 224.5t-207.5 97.5t-207.5 -97.5t-83 -224.5v-684h-322z" />
<glyph unicode="O" horiz-adv-x="1435" d="M51 641q0 281 194.5 482.5t473 201.5t472 -201.5t193.5 -482.5q0 -279 -193.5 -481.5t-472 -202.5t-473 202.5t-194.5 481.5zM373 641q0 -145 100 -252.5t245.5 -107.5t245 107.5t99.5 252.5q0 147 -99.5 255t-245 108t-245.5 -108t-100 -255z" />
<glyph unicode="P" horiz-adv-x="1306" d="M51 0v1286h719q205 0 345 -150.5t140 -357.5t-140 -356.5t-345 -149.5h-397v-272h-322zM373 594h397q72 0 118 56.5t46 128t-47 129t-117 57.5h-397v-371z" />
<glyph unicode="Q" horiz-adv-x="1435" d="M51 641q0 279 194.5 481.5t473 202.5t472 -202.5t193.5 -481.5q0 -233 -140 -419.5t-363 -244.5q-18 -211 -146.5 -337.5t-339.5 -126.5v321q76 0 113 34t47 109q-223 57 -363.5 244t-140.5 420zM373 641q0 -147 100 -254.5t245.5 -107.5t245 107.5t99.5 254.5 q0 145 -99.5 252.5t-245 107.5t-245.5 -107.5t-100 -252.5z" />
<glyph unicode="R" horiz-adv-x="1292" d="M31 0v1296h817q174 0 294 -128t120 -304q0 -160 -101.5 -282.5t-257.5 -143.5q47 -113 135 -112h205v-326h-205q-143 0 -270 98.5t-174 237.5l-150 422h404q39 0 64.5 33.5t25.5 72.5t-25.5 73t-64.5 34h-492v-971h-325z" />
<glyph unicode="S" d="M51 879v28q0 162 115 276.5t274 114.5h748v-325h-748q-27 0 -45 -19.5t-18 -46.5q0 -94 63 -94h455q162 0 275.5 -114.5t113.5 -276.5v-29q0 -162 -113.5 -276.5t-275.5 -114.5h-745v326h745q27 0 46.5 19.5t19.5 45.5q0 94 -66 94h-455q-160 0 -274.5 115t-114.5 277z " />
<glyph unicode="T" horiz-adv-x="1005" d="M51 975v321h903v-321h-290v-975h-322v975h-291z" />
<glyph unicode="U" horiz-adv-x="1327" d="M51 612v676h322v-676q0 -127 83 -223t207.5 -96t207.5 96t83 223v676h322v-676q0 -260 -177 -451.5t-435 -191.5t-435.5 191.5t-177.5 451.5z" />
<glyph unicode="V" horiz-adv-x="1447" d="M51 1294h350l330 -835l320 835h346l-428 -1128q-33 -84 -92.5 -138.5t-141.5 -54.5q-160 0 -235 189z" />
<glyph unicode="W" horiz-adv-x="1894" d="M51 496v802h326v-802q0 -84 59.5 -144.5t143.5 -60.5t144 60.5t60 144.5v802h326v-802q0 -84 59.5 -144.5t143.5 -60.5t144.5 60.5t60.5 144.5v802h325v-802q0 -219 -155.5 -374t-374.5 -155q-213 0 -367 148q-154 -147 -366 -148q-219 0 -374 156t-155 373z" />
<glyph unicode="X" horiz-adv-x="1292" d="M51 0v326q145 0 266 90t121 231t-120.5 232.5t-266.5 91.5v323q176 0 335 -76.5t261 -216.5q100 139 259 216t335 77v-323q-143 0 -264 -91.5t-121 -232.5t120 -231t265 -90v-326q-176 0 -334.5 77t-259.5 216q-102 -139 -261 -216t-335 -77z" />
<glyph unicode="Y" horiz-adv-x="1314" d="M39 1298h354l223 -518q96 170 277 518h371l-281 -528l-88 -164l-121 -219l-10 -16l-49 -88q-68 -121 -205 -202t-274 -81h-185v326h185q45 0 98 28.5t84 67.5z" />
<glyph unicode="Z" horiz-adv-x="1284" d="M51 236q0 115 115 215l602 520h-707v325h863q125 0 217 -58t92 -177q0 -117 -115 -217l-602 -518h707v-326h-861q-125 0 -218 58.5t-93 177.5z" />
<glyph unicode="[" horiz-adv-x="602" d="M51 0v1296h500v-325h-174v-645h174v-326h-500z" />
<glyph unicode="\" horiz-adv-x="903" d="M51 1294h348l453 -1292h-344z" />
<glyph unicode="]" horiz-adv-x="602" d="M51 0v326h176v645h-176v325h500v-1296h-500z" />
<glyph unicode="^" horiz-adv-x="1093" d="M2 160l317 803q78 188 236 188q80 0 140.5 -55.5t90.5 -137.5l306 -798h-349q-47 127 -122 405q-63 213 -70 230q-14 -37 -64 -201q-84 -299 -137 -434h-348z" />
<glyph unicode="_" horiz-adv-x="1034" d="M51 -602h1106v-326h-1106v326z" />
<glyph unicode="`" horiz-adv-x="464" d="M51 1245h211l152 -135h-144z" />
<glyph unicode="a" horiz-adv-x="1490" d="M51 389v31q0 162 115 276.5t274 114.5h373q-16 51 -29.5 80t-46 54.5t-78.5 25.5h-497v325h497q143 0 269.5 -99t175.5 -239l336 -958h-344l-170 485h-486q-27 0 -45 -19.5t-18 -45.5q0 -94 63 -94h455v-326h-455q-160 0 -274.5 114.5t-114.5 274.5z" />
<glyph unicode="b" d="M51 0v1296h844q162 0 275.5 -114.5t113.5 -276.5q0 -156 -74 -258q74 -102 74 -227v-31q0 -160 -113.5 -274.5t-275.5 -114.5h-844zM377 326h518q27 0 46.5 18t19.5 45q0 96 -66 96h-324v326h324q27 0 46.5 18.5t19.5 44.5q0 96 -66 97h-518v-645z" />
<glyph unicode="c" horiz-adv-x="1173" d="M33 647q0 268 180 458.5t436 190.5h455v-325h-455q-121 0 -206 -95.5t-85 -228.5t85 -227t206 -94h455v-326h-455q-254 0 -435 189.5t-181 457.5z" />
<glyph unicode="d" d="M51 0v1296h617q256 0 436 -190.5t180 -458.5t-181 -457.5t-435 -189.5h-617zM377 326h291q121 0 207 94t86 227t-86.5 228.5t-206.5 95.5h-291v-645z" />
<glyph unicode="e" horiz-adv-x="1392" d="M51 651.5q0 266.5 185.5 459t449.5 192.5h279q156 0 266 -111t110 -266v-60q0 -156 -110.5 -267.5t-265.5 -111.5h-430v326h430q23 0 38 15.5t15 37.5v19v21q0 7 -1 20.5t-5 20.5t-9.5 15.5t-15.5 12.5t-22 4h-279q-131 0 -220 -97.5t-89 -230.5q0 -131 90 -228t219 -97 h612v-326h-612q-264 0 -449.5 192.5t-185.5 459z" />
<glyph unicode="f" horiz-adv-x="1329" d="M51 0v326h207q31 0 76 35.5t63 84.5l193 517q53 143 185 238t278 95h225v-325h-225q-41 0 -91.5 -37t-68.5 -84l-31 -86h180v-324h-301l-41 -106q-51 -143 -178 -238.5t-264 -95.5h-207z" />
<glyph unicode="g" d="M51 647q0 262 178.5 455.5t438.5 193.5h616v-325h-616q-125 0 -208 -98.5t-83 -225.5t83 -224t208 -97h293v159h-304v326h627v-811h-616q-260 0 -438.5 192.5t-178.5 454.5z" />
<glyph unicode="h" horiz-adv-x="1257" d="M51 0v1296h326v-485h504v485h325v-1296h-325v485h-504v-485h-326z" />
<glyph unicode="i" horiz-adv-x="466" d="M27 1141q0 86 60 146.5t146 60.5t146.5 -60.5t60.5 -146.5t-60.5 -146.5t-146.5 -60.5t-146 60.5t-60 146.5zM72 2v860h323v-860h-323z" />
<glyph unicode="j" horiz-adv-x="1081" d="M51 0v322h203q57 0 87 29.5t50 88.5l299 856h340l-336 -964q-47 -137 -172 -234.5t-268 -97.5h-203z" />
<glyph unicode="k" horiz-adv-x="1296" d="M51 0v1296h326v-448l8 8l453 440h407l-403 -401q-170 -170 -203 -205q-8 -41 -8 -61q0 -84 65.5 -146.5t166 -94.5t192.5 -47t170 -15v-326h-35h-14q-111 0 -238 31q-135 33 -262 96t-212 169.5t-87 235.5v-532h-326z" />
<glyph unicode="l" horiz-adv-x="1081" d="M51 1296h340l297 -856q23 -59 52.5 -88.5t84.5 -29.5h205v-322h-205q-141 0 -266 97.5t-172 234.5z" />
<glyph unicode="m" horiz-adv-x="1894" d="M51 0v801q0 219 154.5 374.5t374.5 155.5q213 0 366 -149q156 150 367 149q219 0 374.5 -155.5t155.5 -374.5v-801h-325v801q0 84 -60.5 144.5t-144.5 60.5t-143.5 -60.5t-59.5 -144.5v-801h-326v801q0 84 -60 144.5t-144 60.5t-143.5 -60.5t-59.5 -144.5v-801h-326z" />
<glyph unicode="n" horiz-adv-x="1327" d="M51 0v684q0 262 177.5 453.5t435.5 191.5t435 -191.5t177 -453.5v-684h-322v684q0 127 -83 224.5t-207.5 97.5t-207.5 -97.5t-83 -224.5v-684h-322z" />
<glyph unicode="o" horiz-adv-x="1435" d="M51 641q0 281 194.5 482.5t473 201.5t472 -201.5t193.5 -482.5q0 -279 -193.5 -481.5t-472 -202.5t-473 202.5t-194.5 481.5zM373 641q0 -145 100 -252.5t245.5 -107.5t245 107.5t99.5 252.5q0 147 -99.5 255t-245 108t-245.5 -108t-100 -255z" />
<glyph unicode="p" horiz-adv-x="1306" d="M51 0v1286h719q205 0 345 -150.5t140 -357.5t-140 -356.5t-345 -149.5h-397v-272h-322zM373 594h397q72 0 118 56.5t46 128t-47 129t-117 57.5h-397v-371z" />
<glyph unicode="q" horiz-adv-x="1435" d="M51 641q0 279 194.5 481.5t473 202.5t472 -202.5t193.5 -481.5q0 -233 -140 -419.5t-363 -244.5q-18 -211 -146.5 -337.5t-339.5 -126.5v321q76 0 113 34t47 109q-223 57 -363.5 244t-140.5 420zM373 641q0 -147 100 -254.5t245.5 -107.5t245 107.5t99.5 254.5 q0 145 -99.5 252.5t-245 107.5t-245.5 -107.5t-100 -252.5z" />
<glyph unicode="r" horiz-adv-x="1081" d="M51 0l336 965q47 137 172 234t266 97h205v-321h-205q-55 0 -84.5 -30t-52.5 -89l-297 -856h-340z" />
<glyph unicode="s" horiz-adv-x="1320" d="M51 0v322h205q37 0 80 40.5t57 79.5l193 514q51 139 182 234.5t276 95.5h226v-321h-226q-45 0 -93 -39t-64 -82l-191 -514q-51 -135 -176 -232.5t-264 -97.5h-205z" />
<glyph unicode="t" horiz-adv-x="1081" d="M51 1296h340l68 -192h344v-326h-232l117 -338q23 -59 52.5 -88.5t84.5 -29.5h205v-322h-205q-141 0 -266 97.5t-172 234.5z" />
<glyph unicode="u" horiz-adv-x="1327" d="M51 612v676h322v-676q0 -127 83 -223t207.5 -96t207.5 96t83 223v676h322v-676q0 -260 -177 -451.5t-435 -191.5t-435.5 191.5t-177.5 451.5z" />
<glyph unicode="v" horiz-adv-x="1447" d="M51 1298h350l330 -835l320 835h346l-428 -1128q-33 -84 -92.5 -138.5t-141.5 -54.5q-160 0 -235 189z" />
<glyph unicode="w" horiz-adv-x="1894" d="M51 496v802h326v-802q0 -84 59.5 -144.5t143.5 -60.5t144 60.5t60 144.5v802h326v-802q0 -84 59.5 -144.5t143.5 -60.5t144.5 60.5t60.5 144.5v802h325v-802q0 -219 -155.5 -374t-374.5 -155q-213 0 -367 148q-154 -147 -366 -148q-219 0 -374 156t-155 373z" />
<glyph unicode="x" horiz-adv-x="1292" d="M51 0v326q145 0 266 90t121 231t-120.5 232.5t-266.5 91.5v323q176 0 335 -76.5t261 -216.5q100 139 259 216t335 77v-323q-143 0 -264 -91.5t-121 -232.5t120 -231t265 -90v-326q-176 0 -334.5 77t-259.5 216q-102 -139 -261 -216t-335 -77z" />
<glyph unicode="y" horiz-adv-x="1314" d="M39 1296h354l223 -516l277 516h371l-281 -526l-88 -164l-121 -219l-10 -16l-49 -88q-68 -121 -205 -202t-274 -81h-185v326h185q45 0 98 28.5t84 67.5z" />
<glyph unicode="z" horiz-adv-x="1284" d="M51 236q0 115 115 215l602 520h-707v325h863q125 0 217 -58t92 -177q0 -117 -115 -217l-602 -518h707v-326h-861q-125 0 -218 58.5t-93 177.5z" />
<glyph unicode="{" horiz-adv-x="790" d="M51 504v303h101q23 0 38 19.5t15 39.5v185q0 104 75.5 178t180.5 74h278v-324h-209v-645h209v-326h-278q-104 0 -180 74t-76 178v186q0 20 -15.5 39t-37.5 19h-101z" />
<glyph unicode="|" horiz-adv-x="428" d="M51 -82v1460h326v-1460h-326z" />
<glyph unicode="}" horiz-adv-x="790" d="M51 8v326h209v645h-209v324h279q104 0 180 -74t76 -178v-185q0 -20 15 -39.5t38 -19.5h100v-303h-100q-23 0 -38 -18.5t-15 -39.5v-186q0 -104 -76 -178t-180 -74h-279z" />
<glyph unicode="~" horiz-adv-x="806" d="M51 637q78 188 217 188q63 0 156 -67q94 -66 115 -66q53 0 94 78l123 -82q-86 -176 -215 -176q-61 0 -154 63q-88 66 -119 66q-41 0 -88 -78z" />
<glyph unicode="&#xa1;" horiz-adv-x="516" d="M51 1057q0 84 60.5 145.5t146.5 61.5t146.5 -61.5t60.5 -145.5q0 -86 -60.5 -147.5t-146.5 -61.5t-146.5 61.5t-60.5 147.5zM53 -47l33 809h324l32 -809h-389z" />
<glyph unicode="&#xa2;" horiz-adv-x="765" d="M51 686q0 141 85 254t220 143v201h228v-190h131v-228h-275q-70 0 -115.5 -55t-45.5 -125t46 -125t115 -55h275v-227h-131v-267h-228v277q-135 31 -220 143.5t-85 253.5z" />
<glyph unicode="&#xa3;" horiz-adv-x="1329" d="M51 0v326h207q31 0 76 35.5t63 84.5l193 517q53 143 185 238t278 95h225v-325h-225q-41 0 -91.5 -37t-68.5 -84l-31 -86h180v-324h-301l-41 -106l-2 -8h494v-326h-909h-25h-207z" />
<glyph unicode="&#xa5;" d="M51 1133v163h326v-163q0 -127 83 -224.5t208 -97.5q127 0 210 97.5t83 224.5v163h323v-163q0 -207 -116.5 -378t-309.5 -237h223v-164h-252v-75h252v-164h-252v-111h-323v111h-252v164h252v75h-252v164h223q-193 66 -309.5 237t-116.5 378z" />
<glyph unicode="&#xa6;" horiz-adv-x="428" d="M45 786v574h326v-574h-326zM57 -82v574h326v-574h-326z" />
<glyph unicode="&#xa7;" horiz-adv-x="1869" d="M51 0v322h205q37 0 80 40.5t57 79.5l193 514q51 139 182 234.5t276 95.5h226v-133q147 133 323 133h226v-321h-226q-45 0 -93 -39t-64 -82l-191 -514q-51 -135 -176 -232.5t-264 -97.5h-205v172q-152 -172 -344 -172h-205zM692 322h113q37 0 80 40.5t57 79.5l193 514l2 9 h-93q-45 0 -93 -39t-64 -82l-191 -514z" />
<glyph unicode="&#xa8;" horiz-adv-x="477" d="M51 1196q0 33 22.5 55.5t55.5 22.5t55.5 -22.5t22.5 -55.5t-22.5 -55.5t-55.5 -22.5t-55.5 22.5t-22.5 55.5zM270 1198q0 33 22.5 55.5t55.5 22.5t55.5 -22.5t22.5 -55.5t-22.5 -55.5t-55.5 -22.5t-55.5 22.5t-22.5 55.5z" />
<glyph unicode="&#xa9;" horiz-adv-x="1482" d="M51 669.5q0 284.5 202 487.5t488.5 203t488.5 -203t202 -487.5t-203 -487t-488 -202.5q-287 0 -488.5 202.5t-201.5 487zM213 670q0 -217 154.5 -372t374 -155t374 155t154.5 372q0 219 -156 373.5t-373 154.5t-372.5 -154.5t-155.5 -373.5zM432 670q0 131 89 227t220 96 h228v-162h-228q-61 0 -103 -49t-42 -112.5t42 -112.5t103 -49h228v-162h-228q-131 0 -220 96.5t-89 227.5z" />
<glyph unicode="&#xaa;" horiz-adv-x="796" d="M51 805v16q0 80 57.5 137.5t137.5 57.5h186q-10 29 -15 41t-21.5 25.5t-39.5 13.5h-303v161h303q72 0 134.5 -49t87.5 -118l167 -480h-172l-84 244h-243q-12 0 -22.5 -10t-10.5 -23q0 -49 33 -49h227v-162h-227q-80 0 -137.5 57.5t-57.5 137.5z" />
<glyph unicode="&#xab;" horiz-adv-x="1110" d="M51 647.5q0 147.5 31 261.5l106 387h338l-131 -473q-18 -61 -18 -176q0 -113 18 -174l131 -473h-338l-106 385q-31 115 -31 262.5zM584 647.5q0 147.5 30 261.5l107 387h338l-131 -473q-18 -61 -19 -176q0 -113 19 -174l131 -473h-338l-107 385q-30 115 -30 262.5z" />
<glyph unicode="&#xac;" horiz-adv-x="1153" d="M51 489v324h660q162 0 276.5 -113.5t114.5 -275.5v-289h-326v289q0 27 -19.5 46t-45.5 19h-660z" />
<glyph unicode="&#xad;" horiz-adv-x="839" d="M51 485v326h737v-326h-737z" />
<glyph unicode="&#xae;" horiz-adv-x="561" d="M51 1065q0 96 67.5 163.5t162 67.5t162 -67.5t67.5 -163.5q0 -94 -67.5 -161.5t-162 -67.5t-162 67.5t-67.5 161.5zM84 1065q0 -82 57.5 -139.5t139 -57.5t140 57.5t58.5 139.5t-58.5 140.5t-140 58.5t-139 -58.5t-57.5 -140.5zM176 950v228h152q27 0 45 -18.5t18 -43.5 q0 -33 -18.5 -49t-36 -18t-51.5 -2h-13q18 -66 127 -66v-33q-121 0 -159 99h-31v-97h-33zM209 1079h119q12 0 21 9.5t9 21.5q0 35 -30 35h-119v-66z" />
<glyph unicode="&#xaf;" horiz-adv-x="839" d="M131 1278v111h551v-111h-551z" />
<glyph unicode="&#xb0;" horiz-adv-x="458" d="M51 1184q0 72 52.5 124t126 52t126 -52.5t52.5 -123.5q0 -74 -52.5 -126t-126 -52t-126 52t-52.5 126zM150 1184q0 -35 23.5 -58.5t56 -23.5t56 24.5t23.5 57.5t-23.5 56.5t-56 23.5t-56 -23.5t-23.5 -56.5z" />
<glyph unicode="&#xb1;" horiz-adv-x="1435" d="M51 778q0 76 51.5 130.5t126.5 54.5q37 0 74 -17l268 -121l-32 293v19q0 76 51 127t127 51t128 -51.5t52 -126.5q0 -12 -2 -19l-31 -293l269 121q37 16 73 17q74 0 126 -54.5t52 -128.5q0 -63 -39.5 -111t-103.5 -63l-287 -59l197 -217q47 -51 47 -121q0 -74 -54 -127 t-128 -53q-100 0 -152 92l-147 254l-146 -256q-51 -90 -153 -90q-74 0 -128 53t-54 127q0 68 47 121l198 217l-288 59q-61 14 -101.5 61.5t-40.5 110.5z" />
<glyph unicode="&#xb2;" horiz-adv-x="718" d="M51 641v260q0 70 60.5 108t134.5 38h227q33 0 33 32q0 47 -33 47h-381v162h381q80 0 137.5 -56t57.5 -138v-15q0 -82 -57.5 -138t-137.5 -56h-227q-16 0 -33 -6v-76h414v-162h-576z" />
<glyph unicode="&#xb3;" horiz-adv-x="677" d="M51 1126v162h381q82 0 138.5 -56t56.5 -138q0 -80 -37 -129q37 -49 37 -113v-16q0 -80 -56.5 -137.5t-138.5 -57.5h-364v162h364q14 0 23.5 10t9.5 23q0 49 -33 49h-162v162h162q33 0 33 32q0 47 -33 47h-381z" />
<glyph unicode="&#xb4;" horiz-adv-x="464" d="M51 1110l152 135h211l-219 -135h-144z" />
<glyph unicode="&#xb5;" horiz-adv-x="1435" d="M51 778q0 76 51.5 130.5t126.5 54.5q37 0 74 -17l268 -121l-32 293v19q0 76 51 127t127 51t128 -51.5t52 -126.5q0 -12 -2 -19l-31 -293l269 121q37 16 73 17q74 0 126 -54.5t52 -128.5q0 -63 -39.5 -111t-103.5 -63l-287 -59l197 -217q47 -51 47 -121q0 -74 -54 -127 t-128 -53q-100 0 -152 92l-147 254l-146 -256q-51 -90 -153 -90q-74 0 -128 53t-54 127q0 68 47 121l198 217l-288 59q-61 14 -101.5 61.5t-40.5 110.5z" />
<glyph unicode="&#xb6;" horiz-adv-x="991" d="M51 784.5q0 206.5 142.5 359t347.5 152.5h399v-1296h-326v272h-73q-205 0 -347.5 153t-142.5 359.5zM377 784.5q0 -71.5 47 -129t117 -57.5h73v373h-73q-70 0 -117 -57.5t-47 -129z" />
<glyph unicode="&#xb7;" horiz-adv-x="516" d="M51 625q0 86 60.5 146t146.5 60t146.5 -60t60.5 -146t-60.5 -146.5t-146.5 -60.5t-146.5 60.5t-60.5 146.5z" />
<glyph unicode="&#xb8;" horiz-adv-x="483" d="M51 -477l41 98h152q39 0 64.5 31t25.5 69q0 29 -10.5 49.5t-21.5 31t-38.5 15.5t-40 6t-47.5 0t-41 -1l82 201h105l-43 -107q68 -14 110.5 -69.5t42.5 -125.5q0 -80 -54 -139t-134 -59h-193z" />
<glyph unicode="&#xb9;" horiz-adv-x="595" d="M51 1128v162h103q70 0 132 -49t87 -117l172 -483h-170l-154 428q-20 59 -67 59h-103z" />
<glyph unicode="&#xba;" horiz-adv-x="770" d="M51 928q0 141 97.5 241.5t236.5 100.5t236.5 -100.5t97.5 -241.5q0 -139 -97.5 -240.5t-236.5 -101.5t-236.5 101.5t-97.5 240.5zM213 927.5q0 -73.5 50 -126.5t122 -53t122 53t50 126.5t-50 127t-122 53.5t-122 -53.5t-50 -127z" />
<glyph unicode="&#xbb;" horiz-adv-x="1110" d="M51 0l131 473q18 61 19 174q0 115 -19 176l-131 473h338l107 -387q31 -115 30.5 -262t-30.5 -262l-107 -385h-338zM584 0l131 473q18 61 18 174q0 115 -18 176l-131 473h338l106 -387q31 -115 31 -262t-31 -262l-106 -385h-338z" />
<glyph unicode="&#xbc;" horiz-adv-x="1478" d="M51 1010v159h103q70 0 132 -49t87 -116l172 -482h-170l-154 426q-20 61 -67 62h-103zM236 0l788 1182h174l-790 -1182h-172zM772 250q0 49 37 96l227 301h240v-360h151v-164h-151v-123h-162v123h-194q-59 0 -103.5 34t-44.5 93zM967 287h147v192z" />
<glyph unicode="&#xbd;" horiz-adv-x="1556" d="M51 1010v159h103q70 0 132 -49t87 -116l172 -482h-170l-154 426q-20 61 -67 62h-103zM236 0l788 1182h174l-790 -1182h-172zM889 0v258q0 70 60.5 109t133.5 39h228q12 0 22 9t10 23q0 47 -32 47h-381v162h381q80 0 137 -56t57 -138v-15q0 -82 -57 -139t-137 -57h-228 q-23 0 -32 -4v-76h413v-162h-575z" />
<glyph unicode="&#xbe;" horiz-adv-x="1550" d="M51 1018v162h381q82 0 138.5 -56.5t56.5 -138.5q0 -80 -37 -129q37 -49 37 -113v-16q0 -80 -56.5 -137.5t-138.5 -57.5h-364v162h364q14 0 23.5 10.5t9.5 22.5q0 47 -33 47h-162v164h162q33 0 33 33q0 47 -33 47h-381zM307 0l789 1182h174l-791 -1182h-172zM844 250 q0 49 37 96l227 301h240v-360h151v-164h-151v-123h-162v123h-195q-59 0 -103 34t-44 93zM1038 287h148v192z" />
<glyph unicode="&#xbf;" horiz-adv-x="878" d="M51 285q0 76 37 153l191 393h362l-246 -505h432v-326h-465q-131 0 -221 78t-90 207zM252 1104q0 86 61.5 146.5t147.5 60.5q84 0 145.5 -60.5t61.5 -146.5q0 -84 -61.5 -145.5t-145.5 -61.5q-86 0 -147.5 61.5t-61.5 145.5z" />
<glyph unicode="&#xc0;" d="M51 0v680q0 268 180.5 457.5t436.5 189.5t436 -189.5t180 -457.5v-680h-323v293h-584v-293h-326zM377 616h584v64q0 133 -86.5 228.5t-207 95.5t-205.5 -95.5t-85 -228.5v-64zM420 1530h211l151 -135h-143z" />
<glyph unicode="&#xc1;" d="M51 0v680q0 268 180.5 457.5t436.5 189.5t436 -189.5t180 -457.5v-680h-323v293h-584v-293h-326zM377 616h584v64q0 133 -86.5 228.5t-207 95.5t-205.5 -95.5t-85 -228.5v-64zM561 1391l152 135h211l-219 -135h-144z" />
<glyph unicode="&#xc2;" d="M51 0v680q0 268 180.5 457.5t436.5 189.5t436 -189.5t180 -457.5v-680h-323v293h-584v-293h-326zM377 616h584v64q0 133 -86.5 228.5t-207 95.5t-205.5 -95.5t-85 -228.5v-64zM479 1382l101 117q25 27 75 27q53 0 74 -29l98 -115h-110q-12 14 -31.5 47t-30.5 46 q-12 -14 -32.5 -46t-32.5 -47h-111z" />
<glyph unicode="&#xc3;" d="M51 0v680q0 268 180.5 457.5t436.5 189.5t436 -189.5t180 -457.5v-680h-323v293h-584v-293h-326zM377 616h584v64q0 133 -86.5 228.5t-207 95.5t-205.5 -95.5t-85 -228.5v-64zM514 1444q35 84 96 84q29 0 70 -29q41 -31 51 -31q23 0 41 35l55 -37q-41 -78 -96 -77 q-27 0 -67.5 28.5t-53.5 28.5q-16 0 -39 -35z" />
<glyph unicode="&#xc4;" d="M51 0v680q0 268 180.5 457.5t436.5 189.5t436 -189.5t180 -457.5v-680h-323v293h-584v-293h-326zM377 616h584v64q0 133 -86.5 228.5t-207 95.5t-205.5 -95.5t-85 -228.5v-64zM481 1448q0 33 22.5 55.5t55.5 22.5t55.5 -22.5t22.5 -55.5t-22.5 -55.5t-55.5 -22.5 t-55.5 22.5t-22.5 55.5zM700 1450q0 33 22.5 55.5t55.5 22.5t55.5 -22.5t22.5 -55.5t-22.5 -55.5t-55.5 -22.5t-55.5 22.5t-22.5 55.5z" />
<glyph unicode="&#xc5;" d="M51 0v680q0 236 143.5 416t360.5 221q-18 31 -18 72q0 57 42 99t101 42q57 0 99 -42t42 -99q0 -43 -22 -78q209 -49 347 -225.5t138 -405.5v-680h-323v293h-584v-293h-326zM377 616h584v64q0 133 -86.5 228.5t-207 95.5t-205.5 -95.5t-85 -228.5v-64zM614 1389 q0 -47 43 -62h11q20 0 30 -2q45 14 45 64q0 27 -18 45t-45 18t-46.5 -18t-19.5 -45z" />
<glyph unicode="&#xc6;" horiz-adv-x="2170" d="M51 0v680q0 268 180.5 457.5t436.5 189.5q139 0 263 -61.5t210 -169.5q184 201 444 200h535v-325h-535q-78 0 -145.5 -44t-106.5 -116h545v-326h-545q39 -74 106.5 -116.5t145.5 -42.5h535v-326h-535q-158 0 -301 82v-82h-323v293h-584v-293h-326zM377 616h584v64 q0 133 -86.5 228.5t-207 95.5t-205.5 -95.5t-85 -228.5v-64z" />
<glyph unicode="&#xc7;" horiz-adv-x="1173" d="M51 647q0 268 180.5 458.5t436.5 190.5h454v-325h-454q-121 0 -206 -95.5t-85 -228.5t85 -227t206 -94h454v-326h-342l-41 -98q68 -14 111 -69.5t43 -125.5q0 -80 -55.5 -139.5t-132.5 -59.5h-193l41 99h152q39 0 64.5 30.5t25.5 69.5q0 29 -10.5 49.5t-21.5 30.5t-39 15 t-40 6.5t-47 0t-41 -1.5l78 193h-6q-254 0 -435.5 189.5t-181.5 457.5z" />
<glyph unicode="&#xc8;" horiz-adv-x="1255" d="M51 647q0 262 178.5 455.5t438.5 193.5h536v-325h-536q-80 0 -146.5 -44t-105.5 -116h545v-326h-545q37 -72 104.5 -115.5t147.5 -43.5h536v-326h-536q-260 0 -438.5 192.5t-178.5 454.5zM666 1516h211l151 -136h-143z" />
<glyph unicode="&#xc9;" horiz-adv-x="1255" d="M51 647q0 262 178.5 455.5t438.5 193.5h536v-325h-536q-80 0 -146.5 -44t-105.5 -116h545v-326h-545q37 -72 104.5 -115.5t147.5 -43.5h536v-326h-536q-260 0 -438.5 192.5t-178.5 454.5zM625 1391l151 135h211l-219 -135h-143z" />
<glyph unicode="&#xca;" horiz-adv-x="1255" d="M51 647q0 262 178.5 455.5t438.5 193.5h536v-325h-536q-80 0 -146.5 -44t-105.5 -116h545v-326h-545q37 -72 104.5 -115.5t147.5 -43.5h536v-326h-536q-260 0 -438.5 192.5t-178.5 454.5zM573 1378l101 117q25 27 76 27q53 0 73 -29l99 -115h-111q-12 14 -31.5 47 t-29.5 45q-12 -14 -33 -45.5t-33 -46.5h-111z" />
<glyph unicode="&#xcb;" horiz-adv-x="1255" d="M51 647q0 262 178.5 455.5t438.5 193.5h536v-325h-536q-80 0 -146.5 -44t-105.5 -116h545v-326h-545q37 -72 104.5 -115.5t147.5 -43.5h536v-326h-536q-260 0 -438.5 192.5t-178.5 454.5zM606 1444q0 33 22.5 55.5t55.5 22.5t55.5 -22.5t22.5 -55.5t-22.5 -55.5 t-55.5 -22.5t-55.5 22.5t-22.5 55.5zM825 1446q0 33 22.5 55.5t55.5 22.5t55.5 -22.5t22.5 -55.5t-22.5 -55.5t-55.5 -22.5t-55.5 22.5t-22.5 55.5z" />
<glyph unicode="&#xcc;" horiz-adv-x="526" d="M74 1524h211l151 -135h-143zM100 0v1296h326v-1296h-326z" />
<glyph unicode="&#xcd;" horiz-adv-x="526" d="M100 0v1296h326v-1296h-326zM113 1389l151 135h211l-219 -135h-143z" />
<glyph unicode="&#xce;" horiz-adv-x="526" d="M90 1384l100 117q25 27 76 27q53 0 74 -29l98 -115h-110q-12 14 -32 47t-30 46q-12 -14 -32.5 -46t-32.5 -47h-111zM100 0v1296h326v-1296h-326z" />
<glyph unicode="&#xcf;" horiz-adv-x="526" d="M82 1452q0 33 22.5 55.5t55.5 22.5t55.5 -22.5t22.5 -55.5t-22.5 -55.5t-55.5 -22.5t-55.5 22.5t-22.5 55.5zM100 0v1296h326v-1296h-326zM301 1454q0 33 22.5 55.5t55.5 22.5t55.5 -22.5t22.5 -55.5t-22.5 -55.5t-55.5 -22.5t-55.5 22.5t-22.5 55.5z" />
<glyph unicode="&#xd0;" horiz-adv-x="1320" d="M51 489v326h78v481h524q256 0 436.5 -190.5t180.5 -458.5t-181.5 -457.5t-435.5 -189.5h-524v489h-78zM453 326h200q121 0 206 94t85 227t-85 228.5t-206 95.5h-200v-156h243v-326h-243v-163z" />
<glyph unicode="&#xd1;" horiz-adv-x="1327" d="M51 0v684q0 262 177.5 453.5t435.5 191.5t435 -191.5t177 -453.5v-684h-322v684q0 127 -83 224.5t-207.5 97.5t-207.5 -97.5t-83 -224.5v-684h-322zM494 1438q35 84 96 84q29 0 69 -29q41 -31 52 -31q23 0 41 35l55 -37q-41 -78 -96 -78q-27 0 -68 29t-53 29 q-16 0 -39 -35z" />
<glyph unicode="&#xd2;" horiz-adv-x="1435" d="M51 641q0 281 194.5 482.5t473 201.5t472 -201.5t193.5 -482.5q0 -279 -193.5 -481.5t-472 -202.5t-473 202.5t-194.5 481.5zM373 641q0 -145 100 -252.5t245.5 -107.5t245 107.5t99.5 252.5q0 147 -99.5 255t-245 108t-245.5 -108t-100 -255zM485 1532h211l152 -135 h-143z" />
<glyph unicode="&#xd3;" horiz-adv-x="1435" d="M51 641q0 281 194.5 482.5t473 201.5t472 -201.5t193.5 -482.5q0 -279 -193.5 -481.5t-472 -202.5t-473 202.5t-194.5 481.5zM373 641q0 -145 100 -252.5t245.5 -107.5t245 107.5t99.5 252.5q0 147 -99.5 255t-245 108t-245.5 -108t-100 -255zM590 1393l151 135h211 l-219 -135h-143z" />
<glyph unicode="&#xd4;" horiz-adv-x="1435" d="M51 641q0 281 194.5 482.5t473 201.5t472 -201.5t193.5 -482.5q0 -279 -193.5 -481.5t-472 -202.5t-473 202.5t-194.5 481.5zM373 641q0 -145 100 -252.5t245.5 -107.5t245 107.5t99.5 252.5q0 147 -99.5 255t-245 108t-245.5 -108t-100 -255zM537 1384l100 117 q25 27 76 27q53 0 73 -29l99 -115h-111q-12 14 -31.5 47t-29.5 46q-12 -14 -33 -46t-33 -47h-110z" />
<glyph unicode="&#xd5;" horiz-adv-x="1435" d="M51 641q0 281 194.5 482.5t473 201.5t472 -201.5t193.5 -482.5q0 -279 -193.5 -481.5t-472 -202.5t-473 202.5t-194.5 481.5zM373 641q0 -145 100 -252.5t245.5 -107.5t245 107.5t99.5 252.5q0 147 -99.5 255t-245 108t-245.5 -108t-100 -255zM535 1442q35 84 96 84 q29 0 69 -29q41 -31 52 -31q23 0 41 35l55 -37q-41 -78 -96 -78q-27 0 -68 29t-53 29q-16 0 -39 -35z" />
<glyph unicode="&#xd6;" horiz-adv-x="1435" d="M51 641q0 281 194.5 482.5t473 201.5t472 -201.5t193.5 -482.5q0 -279 -193.5 -481.5t-472 -202.5t-473 202.5t-194.5 481.5zM373 641q0 -145 100 -252.5t245.5 -107.5t245 107.5t99.5 252.5q0 147 -99.5 255t-245 108t-245.5 -108t-100 -255zM522 1448q0 33 22.5 55.5 t55.5 22.5t55.5 -22.5t22.5 -55.5t-22.5 -55.5t-55.5 -22.5t-55.5 22.5t-22.5 55.5zM741 1450q0 33 22.5 55.5t55.5 22.5t55.5 -22.5t22.5 -55.5t-22.5 -55.5t-55.5 -22.5t-55.5 22.5t-22.5 55.5z" />
<glyph unicode="&#xd7;" horiz-adv-x="1142" d="M88 395l254 252l-254 254l229 229l254 -253l252 253l230 -229l-252 -254l252 -252l-230 -229l-252 252l-254 -252z" />
<glyph unicode="&#xd8;" horiz-adv-x="1435" d="M51 641q0 281 194.5 482.5t473.5 201.5q104 0 199 -31h204l-30 -86q135 -94 213.5 -244.5t78.5 -322.5q0 -279 -193.5 -481.5t-471.5 -202.5q-121 0 -238 45h-159l24 72q-135 94 -215 244.5t-80 322.5zM373 641q0 -139 88 -240l211 598q-129 -18 -214 -121.5t-85 -236.5z M766 285q129 18 213 120.5t84 235.5t-86 240z" />
<glyph unicode="&#xd9;" horiz-adv-x="1327" d="M51 612v676h322v-676q0 -127 83 -223t207.5 -96t207.5 96t83 223v676h322v-676q0 -260 -177 -451.5t-435 -191.5t-435.5 191.5t-177.5 451.5zM467 1532h211l151 -135h-143z" />
<glyph unicode="&#xda;" horiz-adv-x="1327" d="M51 612v676h322v-676q0 -127 83 -223t207.5 -96t207.5 96t83 223v676h322v-676q0 -260 -177 -451.5t-435 -191.5t-435.5 191.5t-177.5 451.5zM504 1386l151 136h211l-219 -136h-143z" />
<glyph unicode="&#xdb;" horiz-adv-x="1327" d="M51 612v676h322v-676q0 -127 83 -223t207.5 -96t207.5 96t83 223v676h322v-676q0 -260 -177 -451.5t-435 -191.5t-435.5 191.5t-177.5 451.5zM498 1378l100 117q25 27 76 27q53 0 74 -29l98 -115h-111q-12 14 -31.5 47t-29.5 45q-12 -14 -32.5 -45.5t-33.5 -46.5h-110z " />
<glyph unicode="&#xdc;" horiz-adv-x="1327" d="M51 612v676h322v-676q0 -127 83 -223t207.5 -96t207.5 96t83 223v676h322v-676q0 -260 -177 -451.5t-435 -191.5t-435.5 191.5t-177.5 451.5zM461 1444q0 33 22.5 55.5t55 22.5t55 -22.5t22.5 -55.5t-22.5 -55.5t-55 -22.5t-55 22.5t-22.5 55.5zM680 1446q0 33 22.5 55.5 t55.5 22.5t55.5 -22.5t22.5 -55.5t-22.5 -55.5t-55.5 -22.5t-55.5 22.5t-22.5 55.5z" />
<glyph unicode="&#xdd;" horiz-adv-x="1314" d="M39 1298h354l223 -518q96 170 277 518h371l-281 -528l-88 -164l-121 -219l-10 -16l-49 -88q-68 -121 -205 -202t-274 -81h-185v326h185q45 0 98 28.5t84 67.5zM461 1335l151 135h211l-219 -135h-143z" />
<glyph unicode="&#xde;" horiz-adv-x="1316" d="M51 0v1296h326v-137h399q205 0 347.5 -152.5t142.5 -359.5t-141.5 -358.5t-348.5 -151.5h-399v-137h-326zM377 461h399q70 0 117 57t47 129t-46 129.5t-118 57.5h-399v-373z" />
<glyph unicode="&#xdf;" d="M51 0v905q0 154 96.5 272.5t245.5 118.5h502q162 0 275.5 -114.5t113.5 -276.5q0 -156 -74 -258q74 -102 74 -227v-31q0 -160 -113.5 -274.5t-275.5 -114.5h-324v326h324q27 0 46.5 18t19.5 45q0 96 -66 96h-518v-485h-326zM377 811h518q27 0 46.5 18.5t19.5 44.5v31 q0 27 -19.5 46.5t-46.5 19.5h-496q-23 -16 -22 -66v-94z" />
<glyph unicode="&#xe0;" horiz-adv-x="1490" d="M51 389v31q0 162 115 276.5t274 114.5h373q-16 51 -29.5 80t-46 54.5t-78.5 25.5h-497v325h497q143 0 269.5 -99t175.5 -239l336 -958h-344l-170 485h-486q-27 0 -45 -19.5t-18 -45.5q0 -94 63 -94h455v-326h-455q-160 0 -274.5 114.5t-114.5 274.5zM195 1530h211 l151 -135h-143z" />
<glyph unicode="&#xe1;" horiz-adv-x="1490" d="M51 389v31q0 162 115 276.5t274 114.5h373q-16 51 -29.5 80t-46 54.5t-78.5 25.5h-497v325h497q143 0 269.5 -99t175.5 -239l336 -958h-344l-170 485h-486q-27 0 -45 -19.5t-18 -45.5q0 -94 63 -94h455v-326h-455q-160 0 -274.5 114.5t-114.5 274.5zM365 1391l151 135 h211l-219 -135h-143z" />
<glyph unicode="&#xe2;" horiz-adv-x="1490" d="M51 389v31q0 162 115 276.5t274 114.5h373q-16 51 -29.5 80t-46 54.5t-78.5 25.5h-497v325h497q143 0 269.5 -99t175.5 -239l336 -958h-344l-170 485h-486q-27 0 -45 -19.5t-18 -45.5q0 -94 63 -94h455v-326h-455q-160 0 -274.5 114.5t-114.5 274.5zM258 1382l100 117 q25 27 76 27q53 0 74 -29l98 -115h-110q-12 14 -32 47t-30 46q-12 -14 -32.5 -46t-32.5 -47h-111z" />
<glyph unicode="&#xe3;" horiz-adv-x="1490" d="M51 389v31q0 162 115 276.5t274 114.5h373q-16 51 -29.5 80t-46 54.5t-78.5 25.5h-497v325h497q143 0 269.5 -99t175.5 -239l336 -958h-344l-170 485h-486q-27 0 -45 -19.5t-18 -45.5q0 -94 63 -94h455v-326h-455q-160 0 -274.5 114.5t-114.5 274.5zM260 1438 q35 84 96 84q29 0 70 -29q41 -31 51 -31q23 0 41 35l55 -37q-41 -78 -96 -78q-27 0 -67.5 29t-53.5 29q-16 0 -39 -35z" />
<glyph unicode="&#xe4;" horiz-adv-x="1490" d="M51 389v31q0 162 115 276.5t274 114.5h373q-16 51 -29.5 80t-46 54.5t-78.5 25.5h-497v325h497q143 0 269.5 -99t175.5 -239l336 -958h-344l-170 485h-486q-27 0 -45 -19.5t-18 -45.5q0 -94 63 -94h455v-326h-455q-160 0 -274.5 114.5t-114.5 274.5zM225 1446 q0 33 22.5 55.5t55.5 22.5t55.5 -22.5t22.5 -55.5t-22.5 -55.5t-55.5 -22.5t-55.5 22.5t-22.5 55.5zM444 1448q0 33 22.5 55.5t55.5 22.5t55.5 -22.5t22.5 -55.5t-22.5 -55.5t-55.5 -22.5t-55.5 22.5t-22.5 55.5z" />
<glyph unicode="&#xe5;" horiz-adv-x="1490" d="M51 389v31q0 162 115 276.5t274 114.5h373q-16 51 -29.5 80t-46 54.5t-78.5 25.5h-497v325h164q-14 27 -15 66q0 57 42 99t102 42q57 0 99 -41t42 -100q0 -37 -16 -66h79q143 0 269.5 -99t175.5 -239l336 -958h-344l-170 485h-486q-27 0 -45 -19.5t-18 -45.5 q0 -94 63 -94h455v-326h-455q-160 0 -274.5 114.5t-114.5 274.5zM389 1362q0 -27 16.5 -44.5t40.5 -21.5h17q23 4 39 21.5t16 44.5t-18.5 45t-45 18t-46 -18t-19.5 -45z" />
<glyph unicode="&#xe6;" horiz-adv-x="2252" d="M51 389v31q0 162 115 276.5t274 114.5h373q-16 51 -29.5 80t-46 54.5t-78.5 25.5h-604v325h604q115 0 220.5 -65.5t173.5 -167.5q90 113 218 176.5t275 63.5h279q156 0 266.5 -111t110.5 -266v-60q0 -156 -111 -267.5t-266 -111.5h-430v326h430q20 0 35.5 16.5t15.5 36.5 v19v21q0 7 -1 20.5t-4 20.5t-9.5 15.5t-15.5 12.5t-21 4h-279q-131 0 -221 -97.5t-90 -230.5q0 -131 90 -228t221 -97h613v-326h-613q-221 0 -391 139.5t-225 349.5h-4v-4h-486q-27 0 -45 -19.5t-18 -45.5q0 -94 63 -94h455v-326h-455q-160 0 -274.5 114.5t-114.5 274.5z " />
<glyph unicode="&#xe7;" horiz-adv-x="1173" d="M51 647q0 268 180.5 458.5t436.5 190.5h454v-325h-454q-121 0 -206 -95.5t-85 -228.5t85 -227t206 -94h454v-326h-342l-41 -98q68 -14 111 -69.5t43 -125.5q0 -80 -55.5 -139.5t-132.5 -59.5h-193l41 99h152q39 0 64.5 30.5t25.5 69.5q0 29 -10.5 49.5t-21.5 30.5t-39 15 t-40 6.5t-47 0t-41 -1.5l78 193h-6q-254 0 -435.5 189.5t-181.5 457.5z" />
<glyph unicode="&#xe8;" horiz-adv-x="1392" d="M51 651.5q0 266.5 185.5 459t449.5 192.5h279q156 0 266 -111t110 -266v-60q0 -156 -110.5 -267.5t-265.5 -111.5h-430v326h430q23 0 38 15.5t15 37.5v19v21q0 7 -1 20.5t-5 20.5t-9.5 15.5t-15.5 12.5t-22 4h-279q-131 0 -220 -97.5t-89 -230.5q0 -131 90 -228t219 -97 h612v-326h-612q-264 0 -449.5 192.5t-185.5 459zM543 1524h211l151 -135h-143z" />
<glyph unicode="&#xe9;" horiz-adv-x="1392" d="M51 651.5q0 266.5 185.5 459t449.5 192.5h279q156 0 266 -111t110 -266v-60q0 -156 -110.5 -267.5t-265.5 -111.5h-430v326h430q23 0 38 15.5t15 37.5v19v21q0 7 -1 20.5t-5 20.5t-9.5 15.5t-15.5 12.5t-22 4h-279q-131 0 -220 -97.5t-89 -230.5q0 -131 90 -228t219 -97 h612v-326h-612q-264 0 -449.5 192.5t-185.5 459zM666 1391l151 135h211l-219 -135h-143z" />
<glyph unicode="&#xea;" horiz-adv-x="1392" d="M51 651.5q0 266.5 185.5 459t449.5 192.5h279q156 0 266 -111t110 -266v-60q0 -156 -110.5 -267.5t-265.5 -111.5h-430v326h430q23 0 38 15.5t15 37.5v19v21q0 7 -1 20.5t-5 20.5t-9.5 15.5t-15.5 12.5t-22 4h-279q-131 0 -220 -97.5t-89 -230.5q0 -131 90 -228t219 -97 h612v-326h-612q-264 0 -449.5 192.5t-185.5 459zM621 1376l100 117q25 27 76 27q53 0 73 -29l99 -115h-111q-12 14 -31.5 47t-29.5 45q-12 -14 -33 -45.5t-33 -46.5h-110z" />
<glyph unicode="&#xeb;" horiz-adv-x="1392" d="M51 651.5q0 266.5 185.5 459t449.5 192.5h279q156 0 266 -111t110 -266v-60q0 -156 -110.5 -267.5t-265.5 -111.5h-430v326h430q23 0 38 15.5t15 37.5v19v21q0 7 -1 20.5t-5 20.5t-9.5 15.5t-15.5 12.5t-22 4h-279q-131 0 -220 -97.5t-89 -230.5q0 -131 90 -228t219 -97 h612v-326h-612q-264 0 -449.5 192.5t-185.5 459zM625 1448q0 33 22.5 55.5t55 22.5t55 -22.5t22.5 -55.5t-22.5 -55.5t-55 -22.5t-55 22.5t-22.5 55.5zM844 1450q0 33 22.5 55.5t55 22.5t55 -22.5t22.5 -55.5t-22.5 -55.5t-55 -22.5t-55 22.5t-22.5 55.5z" />
<glyph unicode="&#xec;" horiz-adv-x="516" d="M4 1317h211l180 -356h-143zM96 2v860h324v-860h-324z" />
<glyph unicode="&#xed;" horiz-adv-x="516" d="M96 2v860h324v-860h-324zM104 961l183 348h211l-250 -348h-144z" />
<glyph unicode="&#xee;" horiz-adv-x="516" d="M82 1155l100 117q25 27 76 26q53 0 74 -28l98 -115h-111q-12 14 -31.5 47t-29.5 45q-12 -14 -32.5 -46t-32.5 -46h-111zM96 2v860h324v-860h-324z" />
<glyph unicode="&#xef;" horiz-adv-x="516" d="M72 1224.5q0 32.5 22.5 55.5t55 23t55 -23t22.5 -55.5t-22.5 -55t-55 -22.5t-55 22.5t-22.5 55zM96 2v860h324v-860h-324zM291 1227q0 33 22.5 55.5t55 22.5t55 -22.5t22.5 -55.5t-22.5 -55.5t-55 -22.5t-55 22.5t-22.5 55.5z" />
<glyph unicode="&#xf0;" horiz-adv-x="1320" d="M51 489v326h78v481h524q256 0 436.5 -190.5t180.5 -458.5t-181.5 -457.5t-435.5 -189.5h-524v489h-78zM453 326h200q121 0 206 94t85 227t-85 228.5t-206 95.5h-200v-156h243v-326h-243v-163z" />
<glyph unicode="&#xf1;" horiz-adv-x="1327" d="M51 0v684q0 262 177.5 453.5t435.5 191.5t435 -191.5t177 -453.5v-684h-322v684q0 127 -83 224.5t-207.5 97.5t-207.5 -97.5t-83 -224.5v-684h-322zM494 1442q35 84 96 84q29 0 69 -29q41 -31 52 -31q23 0 41 35l55 -37q-41 -78 -96 -78q-27 0 -68 29t-53 29 q-16 0 -39 -35z" />
<glyph unicode="&#xf2;" horiz-adv-x="1435" d="M51 641q0 281 194.5 482.5t473 201.5t472 -201.5t193.5 -482.5q0 -279 -193.5 -481.5t-472 -202.5t-473 202.5t-194.5 481.5zM373 641q0 -145 100 -252.5t245.5 -107.5t245 107.5t99.5 252.5q0 147 -99.5 255t-245 108t-245.5 -108t-100 -255zM440 1530h211l152 -135 h-144z" />
<glyph unicode="&#xf3;" horiz-adv-x="1435" d="M51 641q0 281 194.5 482.5t473 201.5t472 -201.5t193.5 -482.5q0 -279 -193.5 -481.5t-472 -202.5t-473 202.5t-194.5 481.5zM373 641q0 -145 100 -252.5t245.5 -107.5t245 107.5t99.5 252.5q0 147 -99.5 255t-245 108t-245.5 -108t-100 -255zM625 1393l151 135h211 l-219 -135h-143z" />
<glyph unicode="&#xf4;" horiz-adv-x="1435" d="M51 641q0 281 194.5 482.5t473 201.5t472 -201.5t193.5 -482.5q0 -279 -193.5 -481.5t-472 -202.5t-473 202.5t-194.5 481.5zM373 641q0 -145 100 -252.5t245.5 -107.5t245 107.5t99.5 252.5q0 147 -99.5 255t-245 108t-245.5 -108t-100 -255zM539 1382l100 117 q25 27 76 27q53 0 73 -29l99 -115h-111q-12 14 -31.5 47t-29.5 46q-12 -14 -32.5 -46t-33.5 -47h-110z" />
<glyph unicode="&#xf5;" horiz-adv-x="1435" d="M51 641q0 281 194.5 482.5t473 201.5t472 -201.5t193.5 -482.5q0 -279 -193.5 -481.5t-472 -202.5t-473 202.5t-194.5 481.5zM373 641q0 -145 100 -252.5t245.5 -107.5t245 107.5t99.5 252.5q0 147 -99.5 255t-245 108t-245.5 -108t-100 -255zM555 1440q35 84 96 84 q29 0 70 -29q41 -31 51 -31q23 0 41 35l55 -37q-41 -78 -96 -78q-27 0 -67.5 29t-53.5 29q-16 0 -39 -35z" />
<glyph unicode="&#xf6;" horiz-adv-x="1435" d="M51 641q0 281 194.5 482.5t473 201.5t472 -201.5t193.5 -482.5q0 -279 -193.5 -481.5t-472 -202.5t-473 202.5t-194.5 481.5zM373 641q0 -145 100 -252.5t245.5 -107.5t245 107.5t99.5 252.5q0 147 -99.5 255t-245 108t-245.5 -108t-100 -255zM522 1448q0 33 22.5 55.5 t55.5 22.5t55.5 -22.5t22.5 -55.5t-22.5 -55.5t-55.5 -22.5t-55.5 22.5t-22.5 55.5zM741 1450q0 33 22.5 55.5t55.5 22.5t55.5 -22.5t22.5 -55.5t-22.5 -55.5t-55.5 -22.5t-55.5 22.5t-22.5 55.5z" />
<glyph unicode="&#xf7;" horiz-adv-x="839" d="M51 338v162h737v-162h-737zM315 190q0 41 31 72t74 31t72.5 -31t29.5 -72q0 -43 -29.5 -73.5t-72.5 -30.5t-74 30.5t-31 73.5zM315 657q0 43 31 73t74 30t72.5 -30t29.5 -73t-29.5 -73.5t-72.5 -30.5t-74 30.5t-31 73.5z" />
<glyph unicode="&#xf8;" horiz-adv-x="1435" d="M51 641q0 281 194.5 482.5t473.5 201.5q104 0 199 -31h204l-30 -86q135 -94 213.5 -244.5t78.5 -322.5q0 -279 -193.5 -481.5t-471.5 -202.5q-121 0 -238 45h-159l24 72q-135 94 -215 244.5t-80 322.5zM373 641q0 -139 88 -240l211 598q-129 -18 -214 -121.5t-85 -236.5z M766 285q129 18 213 120.5t84 235.5t-86 240z" />
<glyph unicode="&#xf9;" horiz-adv-x="1327" d="M51 612v676h322v-676q0 -127 83 -223t207.5 -96t207.5 96t83 223v676h322v-676q0 -260 -177 -451.5t-435 -191.5t-435.5 191.5t-177.5 451.5zM461 1528h211l151 -135h-143z" />
<glyph unicode="&#xfa;" horiz-adv-x="1327" d="M51 612v676h322v-676q0 -127 83 -223t207.5 -96t207.5 96t83 223v676h322v-676q0 -260 -177 -451.5t-435 -191.5t-435.5 191.5t-177.5 451.5zM481 1391l152 135h211l-219 -135h-144z" />
<glyph unicode="&#xfb;" horiz-adv-x="1327" d="M51 612v676h322v-676q0 -127 83 -223t207.5 -96t207.5 96t83 223v676h322v-676q0 -260 -177 -451.5t-435 -191.5t-435.5 191.5t-177.5 451.5zM477 1380l101 117q25 27 75 27q53 0 74 -29l98 -115h-110q-12 14 -31.5 47t-30.5 46q-12 -14 -32.5 -46t-32.5 -47h-111z" />
<glyph unicode="&#xfc;" horiz-adv-x="1327" d="M51 612v676h322v-676q0 -127 83 -223t207.5 -96t207.5 96t83 223v676h322v-676q0 -260 -177 -451.5t-435 -191.5t-435.5 191.5t-177.5 451.5zM481 1452q0 33 22.5 55.5t55.5 22.5t55.5 -22.5t22.5 -55.5t-22.5 -55.5t-55.5 -22.5t-55.5 22.5t-22.5 55.5zM700 1454 q0 33 22.5 55.5t55.5 22.5t55.5 -22.5t22.5 -55.5t-22.5 -55.5t-55.5 -22.5t-55.5 22.5t-22.5 55.5z" />
<glyph unicode="&#xfd;" horiz-adv-x="1314" d="M39 1296h354l223 -516l277 516h371l-281 -526l-88 -164l-121 -219l-10 -16l-49 -88q-68 -121 -205 -202t-274 -81h-185v326h185q45 0 98 28.5t84 67.5zM481 1335l152 135h211l-219 -135h-144z" />
<glyph unicode="&#xfe;" horiz-adv-x="1316" d="M51 0v1296h326v-137h399q205 0 347.5 -152.5t142.5 -359.5t-141.5 -358.5t-348.5 -151.5h-399v-137h-326zM377 461h399q70 0 117 57t47 129t-46 129.5t-118 57.5h-399v-373z" />
<glyph unicode="&#xff;" horiz-adv-x="1314" d="M39 1296h354l223 -516l277 516h371l-281 -526l-88 -164l-121 -219l-10 -16l-49 -88q-68 -121 -205 -202t-274 -81h-185v326h185q45 0 98 28.5t84 67.5zM440 1421.5q0 32.5 22.5 55t55.5 22.5t55.5 -22.5t22.5 -55t-22.5 -55.5t-55.5 -23t-55.5 23t-22.5 55.5zM659 1423.5 q0 32.5 23 55t55.5 22.5t55 -22.5t22.5 -55t-22.5 -55t-55 -22.5t-55.5 22.5t-23 55z" />
<glyph unicode="&#x152;" horiz-adv-x="2265" d="M51 647q0 279 194.5 481.5t473.5 202.5q150 0 283 -65.5t225 -178.5q182 209 452 209h535v-325h-535q-80 0 -147.5 -44t-104.5 -116h545v-326h-545q37 -74 104.5 -116.5t147.5 -42.5h535v-326h-535q-268 0 -452 207q-92 -113 -225.5 -178.5t-282.5 -65.5 q-279 0 -473.5 201.5t-194.5 482.5zM373 647q0 -147 99 -254.5t247 -107.5q141 0 239.5 102t104.5 246v14q0 10 -2 15q-4 141 -102.5 243.5t-239.5 102.5q-145 0 -245.5 -108t-100.5 -253zM1061 647l2 -14v14q0 10 -2 15v-15z" />
<glyph unicode="&#x153;" horiz-adv-x="2402" d="M51 651.5q0 280.5 194.5 482t473.5 201.5q307 0 510 -243q188 211 469 211h276q156 0 266.5 -111t110.5 -266v-60q0 -158 -110.5 -268.5t-266.5 -110.5h-430v326h430q20 0 37 15.5t17 37.5v19v21q0 7 -1.5 20.5t-5.5 20.5l-9 16q-5 8 -15 12t-23 4h-276 q-131 0 -221.5 -97.5t-90.5 -230.5q0 -131 90.5 -228t221.5 -97h610v-326h-610q-281 0 -469 211q-92 -113 -225.5 -178.5t-284.5 -65.5q-279 0 -473.5 202t-194.5 482.5zM373 651.5q0 -147.5 99 -254t247 -106.5q139 0 236.5 99t105.5 239q2 8 2 22.5t-2 22.5 q-8 139 -105.5 238.5t-236.5 99.5q-145 0 -245.5 -106.5t-100.5 -254zM1061 629q2 8 2 22.5t-2 22.5v-23v-22z" />
<glyph unicode="&#x178;" horiz-adv-x="1314" d="M39 1298h354l223 -518q96 170 277 518h371l-281 -528l-88 -164l-121 -219l-10 -16l-49 -88q-68 -121 -205 -202t-274 -81h-185v326h185q45 0 98 28.5t84 67.5zM440 1421.5q0 32.5 22.5 55t55.5 22.5t55.5 -22.5t22.5 -55t-22.5 -55.5t-55.5 -23t-55.5 23t-22.5 55.5z M659 1423.5q0 32.5 23 55t55.5 22.5t55 -22.5t22.5 -55t-22.5 -55t-55 -22.5t-55.5 22.5t-23 55z" />
<glyph unicode="&#x2c6;" horiz-adv-x="645" d="M150 1114l100 117q25 27 76 26q53 0 73 -28l99 -115h-111q-12 14 -31.5 47t-29.5 45q-12 -14 -33 -46t-33 -46h-110z" />
<glyph unicode="&#x2dc;" horiz-adv-x="421" d="M63 1176q35 84 97 84q29 0 69 -29q41 -31 52 -31q23 0 41 35l55 -37q-41 -78 -96 -78q-27 0 -68 29t-53 29q-16 0 -39 -35z" />
<glyph unicode="&#x2000;" horiz-adv-x="765" />
<glyph unicode="&#x2001;" horiz-adv-x="1531" />
<glyph unicode="&#x2002;" horiz-adv-x="765" />
<glyph unicode="&#x2003;" horiz-adv-x="1531" />
<glyph unicode="&#x2004;" horiz-adv-x="509" />
<glyph unicode="&#x2005;" horiz-adv-x="382" />
<glyph unicode="&#x2006;" horiz-adv-x="253" />
<glyph unicode="&#x2007;" horiz-adv-x="253" />
<glyph unicode="&#x2008;" horiz-adv-x="190" />
<glyph unicode="&#x2009;" horiz-adv-x="305" />
<glyph unicode="&#x200a;" horiz-adv-x="83" />
<glyph unicode="&#x2010;" horiz-adv-x="839" d="M51 485v326h737v-326h-737z" />
<glyph unicode="&#x2011;" horiz-adv-x="839" d="M51 485v326h737v-326h-737z" />
<glyph unicode="&#x2012;" horiz-adv-x="839" d="M51 485v326h737v-326h-737z" />
<glyph unicode="&#x2013;" horiz-adv-x="931" d="M51 485v326h830v-326h-830z" />
<glyph unicode="&#x2014;" horiz-adv-x="1105" d="M47 485v326h1012v-326h-1012z" />
<glyph unicode="&#x2018;" horiz-adv-x="514" d="M51 850q0 150 77 264.5t214 185.5l33 -45q-137 -125 -137 -194q0 -31 47 -47q80 -18 129 -71.5t49 -133.5q0 -84 -60.5 -145.5t-146.5 -61.5q-98 0 -151.5 73t-53.5 175z" />
<glyph unicode="&#x2019;" horiz-adv-x="514" d="M51 1094q0 84 60.5 145t146.5 61q98 0 151.5 -72.5t53.5 -174.5q0 -150 -77 -264.5t-214 -186.5l-33 45q137 125 137 195q0 33 -47 45q-80 20 -129 73.5t-49 133.5z" />
<glyph unicode="&#x201a;" horiz-adv-x="514" d="M51 176q0 86 60.5 146.5t146.5 60.5q98 0 151.5 -72.5t53.5 -175.5q0 -147 -77 -263t-214 -185l-33 45q137 125 137 194q0 33 -47 45q-80 20 -129 72.5t-49 132.5z" />
<glyph unicode="&#x201c;" horiz-adv-x="972" d="M51 850q0 150 77 264.5t214 185.5l33 -45q-137 -125 -137 -194q0 -31 47 -47q80 -18 129 -71.5t49 -133.5q0 -84 -60.5 -145.5t-146.5 -61.5q-98 0 -151.5 73t-53.5 175zM510 840q0 147 77 263t214 185l33 -43q-137 -125 -138 -194q0 -35 47 -47q80 -18 129.5 -71.5 t49.5 -133.5q0 -86 -60.5 -146.5t-146.5 -60.5q-98 0 -151.5 73t-53.5 175z" />
<glyph unicode="&#x201d;" horiz-adv-x="972" d="M51 1094q0 84 60.5 145t146.5 61q98 0 151.5 -72.5t53.5 -174.5q0 -150 -77 -264.5t-214 -186.5l-33 45q137 125 137 195q0 33 -47 45q-80 20 -129 73.5t-49 133.5zM510 1081q0 86 60.5 146.5t146.5 60.5q98 0 151.5 -71.5t53.5 -174.5q0 -150 -77 -265t-214 -185l-33 45 q137 125 137 194q0 33 -47 46q-80 20 -129 73t-49 131z" />
<glyph unicode="&#x201e;" horiz-adv-x="972" d="M51 176q0 86 60.5 146.5t146.5 60.5q98 0 151.5 -72.5t53.5 -175.5q0 -147 -77 -263t-214 -185l-33 45q137 125 137 194q0 33 -47 45q-80 20 -129 72.5t-49 132.5zM510 166q0 86 60.5 146.5t146.5 60.5q98 0 151.5 -73t53.5 -175q0 -147 -77 -263t-214 -186l-33 43 q137 125 137 195q0 35 -47 47q-80 18 -129 71.5t-49 133.5z" />
<glyph unicode="&#x2022;" horiz-adv-x="813" d="M96 643q0 129 91.5 220t220.5 91q127 0 218 -91t91 -220q0 -127 -91 -218t-218 -91q-129 0 -220.5 91t-91.5 218z" />
<glyph unicode="&#x2026;" horiz-adv-x="1527" d="M51 178q0 84 60.5 145.5t146.5 61.5t146.5 -61.5t60.5 -145.5q0 -86 -60.5 -146.5t-146.5 -60.5t-146.5 60.5t-60.5 146.5zM557 178q0 86 60.5 146.5t146.5 60.5t146.5 -60.5t60.5 -146.5t-60.5 -146.5t-146.5 -60.5t-146.5 60.5t-60.5 146.5zM1063 178q0 86 60.5 146.5 t146.5 60.5t146.5 -60.5t60.5 -146.5t-60.5 -146.5t-146.5 -60.5t-146.5 60.5t-60.5 146.5z" />
<glyph unicode="&#x202f;" horiz-adv-x="305" />
<glyph unicode="&#x2039;" horiz-adv-x="577" d="M51 647.5q0 147.5 31 261.5l106 387h338l-131 -473q-18 -61 -18 -176q0 -113 18 -174l131 -473h-338l-106 385q-31 115 -31 262.5z" />
<glyph unicode="&#x203a;" horiz-adv-x="577" d="M51 0l131 473q18 61 19 174q0 115 -19 176l-131 473h338l107 -387q31 -115 30.5 -262t-30.5 -262l-107 -385h-338z" />
<glyph unicode="&#x205f;" horiz-adv-x="382" />
<glyph unicode="&#x20ac;" horiz-adv-x="1282" d="M51 434v162h111q0 10 -1 26.5t-1 24.5q0 23 2 35h-107v162h133q61 199 223 325.5t365 126.5h455v-325h-455q-145 0 -231 -127h420v-162h-478q-2 -10 -2 -35q0 -33 4 -51h472v-162h-404q88 -109 219 -108h455v-326h-455q-199 0 -358.5 121t-222.5 313h-144z" />
<glyph unicode="&#x2122;" horiz-adv-x="917" d="M51 1264v32h279v-32h-123v-299h-33v299h-123zM383 958v209q0 53 38 91t91 38q76 0 113 -67q37 68 112 67q53 0 91 -37.5t38 -91.5v-209h-32v209q0 39 -29 68t-68 29t-67.5 -29t-28.5 -68v-209h-33v209q0 39 -28.5 68t-67.5 29t-67.5 -29t-28.5 -68v-209h-33z" />
<glyph unicode="&#xe000;" horiz-adv-x="1295" d="M0 1295h1295v-1295h-1295v1295z" />
<glyph unicode="&#xfb01;" horiz-adv-x="1796" d="M51 0v326h207q31 0 76 35.5t63 84.5l193 517q53 143 185 238t278 95h225v-325h-225q-41 0 -91.5 -37t-68.5 -84l-31 -86h180v-324h-301l-41 -106q-51 -143 -178 -238.5t-264 -95.5h-207zM1356 1141q0 86 60.5 146.5t146.5 60.5t146 -60.5t60 -146.5t-60 -146.5 t-146 -60.5t-146.5 60.5t-60.5 146.5zM1401 2v860h323v-860h-323z" />
<glyph unicode="&#xfb02;" horiz-adv-x="2410" d="M51 0v326h207q31 0 76 35.5t63 84.5l193 517q53 143 185 238t278 95h225v-325h-225q-41 0 -91.5 -37t-68.5 -84l-31 -86h180v-324h-301l-41 -106q-51 -143 -178 -238.5t-264 -95.5h-207zM1380 1296h340l297 -856q23 -59 52.5 -88.5t84.5 -29.5h205v-322h-205 q-141 0 -266 97.5t-172 234.5z" />
<glyph unicode="&#xfb03;" horiz-adv-x="3125" d="M2685 1141q0 86 60 146.5t146 60.5t146.5 -60.5t60.5 -146.5t-60.5 -146.5t-146.5 -60.5t-146 60.5t-60 146.5zM2730 2v860h323v-860h-323zM1380 0v326h207q31 0 76 35.5t63 84.5l193 517q53 143 185 238t278 95h225v-325h-225q-41 0 -91.5 -37t-68.5 -84l-31 -86h180 v-324h-301l-41 -106q-51 -143 -178 -238.5t-264 -95.5h-207zM51 0v326h207q31 0 76 35.5t63 84.5l193 517q53 143 185 238t278 95h225v-325h-225q-41 0 -91.5 -37t-68.5 -84l-31 -86h180v-324h-301l-41 -106q-51 -143 -178 -238.5t-264 -95.5h-207z" />
<glyph unicode="&#xfb04;" horiz-adv-x="3739" d="M2709 1296h340l297 -856q23 -59 52.5 -88.5t84.5 -29.5h205v-322h-205q-141 0 -266 97.5t-172 234.5zM1380 0v326h207q31 0 76 35.5t63 84.5l193 517q53 143 185 238t278 95h225v-325h-225q-41 0 -91.5 -37t-68.5 -84l-31 -86h180v-324h-301l-41 -106 q-51 -143 -178 -238.5t-264 -95.5h-207zM51 0v326h207q31 0 76 35.5t63 84.5l193 517q53 143 185 238t278 95h225v-325h-225q-41 0 -91.5 -37t-68.5 -84l-31 -86h180v-324h-301l-41 -106q-51 -143 -178 -238.5t-264 -95.5h-207z" />
</font>
</defs>
</svg>
